<svg xmlns="http://www.w3.org/2000/svg" xmlns:xlink="http://www.w3.org/1999/xlink" width="163" height="40" viewBox="0 0 163 40">
  <defs>
    <clipPath id="clip-path">
      <rect id="Rectangle_10" data-name="Rectangle 10" width="163" height="40" transform="translate(0.026 0.241)" fill="none"/>
    </clipPath>
  </defs>
  <g id="Group_21" data-name="Group 21" transform="translate(-0.026 -0.241)">
    <g id="Group_19" data-name="Group 19" clip-path="url(#clip-path)">
      <path id="Path_21" data-name="Path 21" d="M376.8,0h46.715L397.6,33.626h20.121V28.211H410.43l13.7-18.829v31.1H381.053L406.981,6.851H383.707A15.649,15.649,0,0,0,376.8,0" transform="translate(-261.068 0.001)" fill="#78b52e"/>
      <path id="Path_22" data-name="Path 22" d="M23.264,10.086v8.689H13.513a33.724,33.724,0,0,1,9.751-8.689m88.257,7.893A20.321,20.321,0,0,0,91.514,0H46.033V25.564l-.019.019a7.958,7.958,0,0,1-15.917,0V0A40.339,40.339,0,0,0,.022,40.4H6.75A33.439,33.439,0,0,1,9.5,25.641H23.292a14.765,14.765,0,0,0,29.529-.058V6.852H59.2V40.4h6.457V6.852H91.78v.015a13.4,13.4,0,0,1,12.9,11.587A13.273,13.273,0,1,1,84.306,8.979H74.759a20.123,20.123,0,1,0,36.762,9" transform="translate(0)" fill="#fff"/>
    </g>
  </g>
</svg>
